<?xml version="1.0" encoding="UTF-8"?>
<svg width="73px" height="30px" viewBox="0 0 73 30" version="1.1" xmlns="http://www.w3.org/2000/svg" xmlns:xlink="http://www.w3.org/1999/xlink">
    <!-- Generator: Sketch 51.3 (57544) - http://www.bohemiancoding.com/sketch -->
    <title>logo_cn_grey</title>
    <desc>Created with Sketch.</desc>
    <defs></defs>
    <g id="Visual" stroke="none" stroke-width="1" fill="none" fill-rule="evenodd">
        <g id="Artboard" transform="translate(-199.000000, -92.000000)">
            <g id="logo_cn_grey" transform="translate(199.000000, 92.000000)">
                <rect id="Rectangle" fill-rule="nonzero" x="0" y="0" width="73" height="30"></rect>
                <g id="Group-3" transform="translate(4.000000, 3.000000)">
                    <path d="M14.0885664,17.2119596 C14.6089985,16.6960064 15.4514307,16.697354 15.9701914,17.2149695 C16.4889521,17.7325851 16.4875972,18.5704581 15.9671651,19.0864113 L13.6562083,21.37748 C11.5241641,23.4912353 8.04750658,23.5218872 5.87950437,21.4486818 C5.86697395,21.4367622 4.90161165,20.4969644 1.71696691,17.3964995 C-0.401699455,15.3339321 -0.612769614,12.0335324 1.38095202,9.91411155 L5.09822877,5.96229334 C7.07696273,3.85858348 10.7244769,3.62865915 12.9868804,5.44518229 L16.3630567,8.15609496 C16.9348077,8.61518443 17.0241128,9.44833732 16.5625253,10.016994 C16.1009377,10.5856507 15.2632513,10.6744725 14.6915004,10.2153831 L11.3153468,7.50448867 C10.132156,6.55448415 8.06241696,6.68495201 7.04145252,7.77040008 L3.32412798,11.7222691 C2.35353481,12.7540557 2.45983617,14.4162375 3.57836908,15.5051534 C5.91691899,17.7818883 7.71921168,19.5364531 7.72129693,19.538443 C8.8484264,20.6162849 10.6709277,20.6002169 11.7775963,19.5030414 L14.0885664,17.2119596 Z" id="Combined-Shape" fill="#FFA116" fill-rule="nonzero"></path>
                    <path d="M8.47461304,14.9192114 C7.73979182,14.9192114 7.14410152,14.326745 7.14410152,13.5959005 C7.14410152,12.8650561 7.73979182,12.2725896 8.47461304,12.2725896 L18.2871355,12.2725896 C19.0219568,12.2725896 19.6176471,12.8650561 19.6176471,13.5959005 C19.6176471,14.326745 19.0219568,14.9192114 18.2871355,14.9192114 L8.47461304,14.9192114 Z" id="Path-2" fill="#FFFFFF"></path>
                    <path d="M10.3122941,0.419252707 C10.814311,-0.114444779 11.6562777,-0.142329376 12.1928792,0.356970716 C12.7294807,0.856270808 12.757517,1.6936808 12.2555001,2.22737829 L3.3241952,11.7223063 C2.35356791,12.7540147 2.45986862,14.4161863 3.57832788,15.5051461 L7.70293666,19.5208066 C8.22804843,20.0320479 8.23703749,20.8698743 7.72301429,21.3921442 C7.20899108,21.9144142 6.36660574,21.9233546 5.84149396,21.4121132 L1.71686612,17.3964342 C-0.401676362,15.3337686 -0.612745783,12.0333804 1.38106468,9.91410049 L10.3122941,0.419252707 Z" id="Stroke-3" fill="#FFFFFF"></path>
                </g>
                <path d="M58.5614927,11.4333333 L58.5614927,21.6151161 C58.5614927,23.6685728 56.8835999,25.3235294 54.8248066,25.3235294 C54.3662033,25.3235294 53.9944319,24.9466293 53.9944319,24.4816993 C53.9944319,24.0167694 54.3662033,23.6398693 54.8248066,23.6398693 C55.9764463,23.6398693 56.9007433,22.728207 56.9007433,21.6151161 L56.9007433,18.274914 L54.7180127,19.160051 C54.2922102,19.3327216 53.8089567,19.1227558 53.6386357,18.6910792 C53.4683147,18.2594026 53.6754234,17.7694824 54.1012258,17.5968118 L56.9007433,16.4615566 L56.9007433,11.4333333 L53.9944319,11.4333333 C53.5358286,11.4333333 53.1640572,11.0564332 53.1640572,10.5915033 C53.1640572,10.1265734 53.5358286,9.7496732 53.9944319,9.7496732 L56.9007433,9.7496732 L56.9007433,7.22418301 C56.9007433,6.7592531 57.2725147,6.38235294 57.731118,6.38235294 C58.1897213,6.38235294 58.5614927,6.7592531 58.5614927,7.22418301 L58.5614927,9.7496732 L66.0237237,9.7496732 C67.6333592,9.7496732 68.9411765,11.0636787 68.9411765,12.6884568 L68.9411765,19.4383406 C68.9411765,21.0631187 67.6333592,22.3771242 66.0237237,22.3771242 L63.6235839,22.3771242 C62.0139485,22.3771242 60.7061312,21.0631187 60.7061312,19.4383406 L60.7061312,13.1169935 L62.3668806,13.1169935 L62.3668806,19.4383406 C62.3668806,20.1298574 62.927833,20.6934641 63.6235839,20.6934641 L66.0237237,20.6934641 C66.7194747,20.6934641 67.2804271,20.1298574 67.2804271,19.4383406 L67.2804271,12.6884568 C67.2804271,11.99694 66.7194747,11.4333333 66.0237237,11.4333333 L58.5614927,11.4333333 Z M33.0190908,16.0791437 C32.5652052,16.0792363 31.7819982,15.6991241 31.7819087,15.2301394 C31.7818191,14.7611548 32.1496935,14.3808926 32.6035792,14.3808 L37.8105052,14.3797386 C38.2644541,14.379646 38.6324999,14.7598603 38.6324999,15.2289104 L38.6324999,18.7831193 C38.6324999,21.930392 36.1633324,24.4816993 33.1173867,24.4816993 C32.6635011,24.4816993 32.2955541,24.1015122 32.2955541,23.6325275 C32.2955541,23.1635428 32.6635011,22.7833556 33.1173867,22.7833556 C35.2555611,22.7833556 36.9888347,20.9924226 36.9888347,18.7831193 L36.9888347,16.0782498 L33.0190908,16.0791437 Z M31.228055,14.2141183 C30.9743274,14.6014084 30.4589522,14.7068447 30.0769322,14.4496168 C29.6949122,14.192389 29.5909106,13.6699039 29.8446382,13.2826138 L33.1944848,8.16940344 C33.8381786,7.18719755 35.1567751,6.92831356 36.1199564,7.59228437 L38.6842645,9.36020154 C39.0634867,9.62164965 39.1618456,10.1452566 38.9039552,10.5297104 C38.6460648,10.9141641 38.1295829,11.0138799 37.7503607,10.7524318 L35.18609,8.98454037 C34.9857552,8.84643925 34.7090683,8.90076203 34.5778306,9.10101625 L31.228055,14.2141183 Z M35.3110011,13.327451 C34.737835,13.327451 34.2730328,12.8562366 34.2730328,12.2751634 C34.2730328,11.6940902 34.737835,11.2228758 35.3110011,11.2228758 C35.8841673,11.2228758 36.3489695,11.6940902 36.3489695,12.2751634 C36.3489695,12.8562366 35.8841673,13.327451 35.3110011,13.327451 Z M41.8044238,15.5336311 C41.9813,15.1010798 42.4690934,14.8964142 42.8939408,15.0764977 C43.3187882,15.2565813 43.5198086,15.75322 43.3429324,16.1857713 L39.8200432,24.8010094 C39.643167,25.2335608 39.1553737,25.4382263 38.7305263,25.2581428 C38.3056789,25.0780593 38.1046585,24.5814206 38.2815346,24.1488692 L41.8044238,15.5336311 Z M39.878062,9.11830065 C39.4194587,9.11830065 39.0476873,8.7414005 39.0476873,8.27647059 C39.0476873,7.81154068 39.4194587,7.43464052 39.878062,7.43464052 L45.5270353,7.43464052 C46.3475762,7.43464052 46.6709429,8.51267602 45.9893153,8.97578323 L42.6196021,10.9831288 L44.022226,10.9831288 C45.6300668,10.9831288 46.9362469,12.2971805 46.9362469,13.9213068 L46.9362469,19.430719 C46.9362469,19.8956489 46.5644755,20.272549 46.1058722,20.272549 C45.647269,20.272549 45.2754975,19.8956489 45.2754975,19.430719 L45.2754975,13.9213068 C45.2754975,13.229952 44.715708,12.6667889 44.022226,12.6667889 L40.3041676,12.6667889 C39.4836267,12.6667889 39.16026,11.5887534 39.8418877,11.1256462 L43.2116008,9.11830065 L39.878062,9.11830065 Z M44.0161374,19.0098039 L46.6343333,24.0970282 C46.8447713,24.5059149 46.6912569,25.0118508 46.2914492,25.2270676 C45.8916415,25.4422843 45.3969396,25.2852838 45.1865015,24.8763971 L43.1995608,21.0157184 L44.0161374,19.0098039 Z" id="Combined-Shape" fill="#FFFFFF" fill-rule="nonzero"></path>
            </g>
        </g>
    </g>
</svg>
